Coordinates
version=1
nRows=20
nColumns=38
inDegrees=no

Units are S.I. units (second, meters, Newtons, ...)
If the header above contains a line with 'inDegrees', this indicates whether rotational values are in degrees (yes) or radians (no).

endheader
time	pelvis_tilt	pelvis_list	pelvis_rotation	pelvis_tx	pelvis_ty	pelvis_tz	hip_flexion_r	hip_adduction_r	hip_rotation_r	knee_angle_r	ankle_angle_r	subtalar_angle_r	mtp_angle_r	hip_flexion_l	hip_adduction_l	hip_rotation_l	knee_angle_l	ankle_angle_l	subtalar_angle_l	mtp_angle_l	lumbar_extension	lumbar_bending	lumbar_rotation	arm_flex_r	arm_add_r	arm_rot_r	elbow_flex_r	pro_sup_r	wrist_flex_r	wrist_dev_r	arm_flex_l	arm_add_l	arm_rot_l	elbow_flex_l	pro_sup_l	wrist_flex_l	wrist_dev_l
24.02	2.81726	1.41224	-1.15147	0.703537	-0.233968	0.946519	-0.178628	0.0160747	0.0460243	0.275987	-0.18431	0	0	-0.126638	-0.131703	-0.0023985	0.351819	-0.136572	0	0	-0.260016	0.118191	0.0482716	0.196694	-0.0801943	-0.645654	1.5343	1.5708	0	0	0.230274	-0.213431	0.15736	1.27959	1.5708	0	0
24.03	2.8215	1.41163	-1.15479	0.703585	-0.233073	0.946442	-0.180557	0.0164535	0.0459405	0.276136	-0.183085	0	0	-0.128901	-0.131729	-0.0017992	0.351007	-0.135957	0	0	-0.260345	0.117148	0.0477364	0.178082	-0.0719061	-0.656459	1.52107	1.5708	0	0	0.223138	-0.220139	0.181185	1.24445	1.5708	0	0
24.04	2.82566	1.41122	-1.15766	0.703643	-0.232172	0.946374	-0.182309	0.016957	0.0457743	0.276499	-0.18169	0	0	-0.130658	-0.131828	-0.0010972	0.350599	-0.135343	0	0	-0.260407	0.115747	0.0462891	0.160192	-0.0664314	-0.662088	1.50296	1.5708	0	0	0.218458	-0.225598	0.206795	1.20481	1.5708	0	0
24.05	2.82791	1.4118	-1.1585	0.703709	-0.231208	0.946273	-0.183031	0.0173664	0.0451098	0.276899	-0.179711	0	0	-0.131262	-0.131829	-0.000238345	0.3501	-0.134709	0	0	-0.258449	0.113949	0.045203	0.142016	-0.0655445	-0.661609	1.47853	1.5708	0	0	0.218151	-0.232191	0.240894	1.15866	1.5708	0	0
24.06	2.82746	1.41312	-1.15706	0.703784	-0.230231	0.946088	-0.182534	0.0174835	0.0450921	0.278073	-0.177495	0	0	-0.130939	-0.131838	0.000247088	0.349764	-0.134172	0	0	-0.255833	0.11205	0.0439061	0.123664	-0.0696786	-0.652214	1.4497	1.5708	0	0	0.218372	-0.238871	0.277194	1.11202	1.5708	0	0
24.07	2.8278	1.41497	-1.15646	0.703908	-0.2292	0.945846	-0.181589	0.0172278	0.0454816	0.279252	-0.175347	0	0	-0.130093	-0.131589	0.000438361	0.349754	-0.133523	0	0	-0.252818	0.109499	0.0415361	0.106871	-0.0767972	-0.635617	1.41548	1.5708	0	0	0.216964	-0.244214	0.31063	1.06681	1.5708	0	0
24.08	2.82945	1.41711	-1.15667	0.704001	-0.228133	0.945626	-0.180805	0.0167648	0.0452996	0.2799	-0.173279	0	0	-0.12908	-0.130983	0.0014258	0.349556	-0.132864	0	0	-0.24949	0.106526	0.0382053	0.0913702	-0.0866267	-0.612808	1.37613	1.5708	0	0	0.214783	-0.24848	0.343512	1.02273	1.5708	0	0
24.09	2.83013	1.4186	-1.15612	0.704114	-0.227132	0.945524	-0.18068	0.016608	0.0447478	0.280095	-0.172029	0	0	-0.12883	-0.130716	0.00244305	0.34886	-0.132582	0	0	-0.246986	0.103857	0.0350498	0.077238	-0.0990588	-0.584271	1.33283	1.5708	0	0	0.211871	-0.251772	0.374916	0.980726	1.5708	0	0
24.1	2.82685	1.42066	-1.15202	0.704254	-0.226114	0.945415	-0.179748	0.0167111	0.0446776	0.280462	-0.170977	0	0	-0.127952	-0.130723	0.00329881	0.347834	-0.1327	0	0	-0.243486	0.101521	0.0323433	0.0637198	-0.113798	-0.550224	1.28664	1.5708	0	0	0.208406	-0.255571	0.407213	0.941175	1.5708	0	0
24.11	2.82141	1.42329	-1.14604	0.704416	-0.225072	0.945274	-0.178152	0.0168757	0.0453422	0.280634	-0.17007	0	0	-0.126449	-0.130767	0.00384486	0.346786	-0.13288	0	0	-0.239104	0.09927	0.0300028	0.0514261	-0.129906	-0.5116	1.23787	1.5708	0	0	0.204297	-0.25965	0.440273	0.904136	1.5708	0	0
24.12	2.81348	1.42699	-1.1379	0.704606	-0.224001	0.945076	-0.175281	0.01684	0.0458185	0.280776	-0.169243	0	0	-0.123738	-0.13055	0.00455888	0.345975	-0.13293	0	0	-0.233236	0.0968514	0.028042	0.040322	-0.149239	-0.464741	1.18571	1.5708	0	0	0.20015	-0.263806	0.475203	0.868612	1.5708	0	0
24.13	2.8044	1.43137	-1.12896	0.704855	-0.222926	0.94484	-0.17166	0.016403	0.0465504	0.280629	-0.168589	0	0	-0.120338	-0.129991	0.00547126	0.345166	-0.133075	0	0	-0.226515	0.0941181	0.0265691	0.0315322	-0.171668	-0.408626	1.13035	1.5708	0	0	0.196537	-0.266785	0.508528	0.833865	1.5708	0	0
24.14	2.79305	1.4369	-1.11804	0.705154	-0.221812	0.944527	-0.16685	0.0154903	0.0482073	0.280362	-0.167857	0	0	-0.115696	-0.129053	0.00657782	0.344547	-0.133169	0	0	-0.218246	0.0909627	0.0255337	0.0255042	-0.197144	-0.342308	1.07141	1.5708	0	0	0.193337	-0.268884	0.540833	0.799792	1.5708	0	0
24.15	2.77901	1.44256	-1.10451	0.705428	-0.220685	0.94424	-0.161849	0.0150418	0.0499665	0.280173	-0.167076	0	0	-0.110887	-0.128308	0.00761955	0.343802	-0.133443	0	0	-0.209518	0.0879352	0.0249188	0.0224788	-0.225228	-0.263873	1.01066	1.5708	0	0	0.190763	-0.27046	0.57485	0.766126	1.5708	0	0
24.16	2.76195	1.44782	-1.08823	0.705718	-0.219585	0.944016	-0.15708	0.0151028	0.0509931	0.27981	-0.166916	0	0	-0.106497	-0.127879	0.00869023	0.342691	-0.133928	0	0	-0.200997	0.0852065	0.0246462	0.0236983	-0.257308	-0.168054	0.94883	1.5708	0	0	0.188495	-0.271351	0.608977	0.733019	1.5708	0	0
24.17	2.74361	1.45264	-1.07091	0.70612	-0.218515	0.943842	-0.152778	0.0150921	0.0519961	0.279065	-0.167096	0	0	-0.10292	-0.127323	0.0119691	0.34078	-0.134262	0	0	-0.192866	0.0825088	0.0244624	0.0307836	-0.289198	-0.0583038	0.885921	1.5708	0	0	0.186653	-0.271316	0.641235	0.70001	1.5708	0	0
24.18	2.72719	1.45735	-1.05556	0.70652	-0.217489	0.943692	-0.148434	0.0151482	0.0532548	0.278952	-0.166694	0	0	-0.0994418	-0.126483	0.0146867	0.339117	-0.134823	0	0	-0.18493	0.0795496	0.0237973	0.0446571	-0.319476	0.0668092	0.822371	1.5708	0	0	0.185068	-0.270425	0.671777	0.667373	1.5708	0	0
24.19	2.71221	1.46158	-1.04144	0.706829	-0.216525	0.943554	-0.144743	0.0147697	0.0543179	0.278568	-0.166794	0	0	-0.09631	-0.125682	0.0164984	0.337653	-0.135354	0	0	-0.177711	0.0770374	0.0229103	0.0627497	-0.342469	0.19419	0.761075	1.5708	0	0	0.18384	-0.268693	0.701547	0.635828	1.5708	0	0
24.2	2.69876	1.46521	-1.02869	0.707093	-0.215618	0.943409	-0.141723	0.0142293	0.0546664	0.278122	-0.166938	0	0	-0.0936644	-0.125113	0.0174665	0.336472	-0.135842	0	0	-0.171505	0.0750597	0.0220564	0.0814755	-0.353878	0.306423	0.701844	1.5708	0	0	0.183145	-0.266308	0.730989	0.605662	1.5708	0	0
24.21	2.68675	1.46802	-1.01738	0.707363	-0.214793	0.943299	-0.139438	0.0138078	0.0542292	0.277711	-0.167289	0	0	-0.0918248	-0.124747	0.0185674	0.335265	-0.1364	0	0	-0.166605	0.0736098	0.0212099	0.0998511	-0.355738	0.405476	0.64311	1.5708	0	0	0.182606	-0.263493	0.758602	0.577298	1.5708	0	0
